PathFileType	4	(X/Y/Z)	\\147.46.242.158\로컬 디스크 (e)\MOCAP Data\Iguana Capture\iguana\Project 2\Capture day 7\Session 2\Take14.trc
DataRate	CameraRate	NumFrames	NumMarkers	Units	OrigDataRate	OrigDataStartFrame	OrigNumFrames
120.0	120.0	13	23	mm	120.0	47	5026
Frame#	Time	ana:head1			ana:head2			ana:bone1			ana:bone2			ana:bone3			ana:tail1			ana:tail2			ana:tail3			ana:tail4			ana:Rforefoot1			ana:Rforefoot2			ana:Rforefoot3			ana:Lforefoot1			ana:Lforefoot2			ana:Lforefoot3			ana:RhindLeg1			ana:RhindLeg2			ana:RhindLeg3			ana:RhindLeg4			ana:LhindLeg1			ana:LhindLeg2			ana:LhindLeg3			ana:LhindLeg4			
		X1	Y1	Z1	X2	Y2	Z2	X3	Y3	Z3	X4	Y4	Z4	X5	Y5	Z5	X6	Y6	Z6	X7	Y7	Z7	X8	Y8	Z8	X9	Y9	Z9	X10	Y10	Z10	X11	Y11	Z11	X12	Y12	Z12	X13	Y13	Z13	X14	Y14	Z14	X15	Y15	Z15	X16	Y16	Z16	X17	Y17	Z17	X18	Y18	Z18	X19	Y19	Z19	X20	Y20	Z20	X21	Y21	Z21	X22	Y22	Z22	X23	Y23	Z23	

2797	23.300	367.73434	170.64090	48.52152	357.29416	171.02855	49.97442	334.69766	167.74200	44.09092	305.75333	170.12764	39.91998	278.09683	186.78833	29.04247	258.09341	209.41460	19.28510	231.18451	232.57623	8.96275	195.53397	253.90263	6.83591	156.23009	269.39908	5.27058	344.13391	155.65889	28.44922	350.28564	142.21794	22.98133	365.53903	149.81172	15.22253	336.29135	176.94685	24.30499	332.41287	183.74138	12.76059	333.14349	169.25735	2.40181	271.78339	180.02548	21.95252	255.62685	169.24318	17.50234	243.99438	181.63626	3.22181	247.02365	171.97215	3.42613	284.19815	192.93845	24.38180	301.39105	198.43419	26.94095	296.90308	212.90453	11.95651	307.23804	213.35500	13.67783	
2798	23.308	368.78482	170.64998	48.41850	358.34653	171.07597	49.86968	335.79382	167.58514	44.04464	306.75421	169.66490	40.01525	278.95898	186.18607	29.25394	258.98053	208.86150	19.38532	232.10558	231.97214	9.01503	196.54195	253.43596	6.83172	157.31409	269.00967	5.26005	345.51239	156.01019	28.16971	352.33112	143.02983	22.24132	367.37613	151.07196	13.99301	336.94455	176.81213	24.10281	332.73035	183.59441	12.70755	333.11285	168.94879	2.55372	272.52051	179.51031	22.11786	256.07239	169.18031	17.58580	244.06117	181.88887	3.44074	247.08069	172.26881	3.25556	285.26660	192.27995	24.48358	302.96820	197.21239	26.78953	299.65295	211.71280	11.20062	310.22546	211.59258	12.68750	
2799	23.317	369.88885	170.64380	48.26655	359.44046	171.14302	49.74450	336.89517	167.58763	43.93913	307.87781	169.30969	40.07806	279.87485	185.64726	29.46669	259.92285	208.34048	19.45176	233.04460	231.38326	9.05742	197.54581	252.97673	6.84349	158.37358	268.71436	5.27737	346.77771	156.41969	27.84329	354.11710	143.85384	21.42760	368.95523	152.29218	12.64388	337.69336	176.82916	24.03182	333.03497	183.47783	12.84350	333.05539	168.61380	2.70571	273.29691	179.06445	22.28452	256.53561	169.21420	17.76097	244.16647	181.98532	3.73814	247.14685	172.42769	3.17291	286.42838	191.69624	24.52852	304.54712	196.23007	26.48886	301.99057	210.29140	10.06498	312.75653	209.97192	11.21964	
2800	23.325	371.06567	170.71982	48.07367	360.58585	171.23792	49.59073	338.06299	167.62045	43.77527	309.10049	169.04733	40.11125	280.92010	185.04102	29.61033	260.85208	207.87581	19.52453	233.96750	230.80392	9.09624	198.53111	252.52325	6.84962	159.41772	268.45169	5.30157	347.98721	156.78143	27.49265	355.71591	144.71535	20.54427	370.31616	153.43217	11.22262	338.51987	176.98749	24.05386	333.32034	183.38461	13.13340	333.02112	168.29587	2.85314	274.16797	178.62747	22.47318	257.12762	169.29633	17.97513	244.32576	181.83801	4.12305	247.19307	172.44600	3.15371	287.65076	191.19255	24.50409	306.07468	195.50932	26.02779	303.92029	208.93887	8.85569	314.84341	208.57283	9.46795	
2801	23.333	372.32016	170.85887	47.86303	361.78107	171.35234	49.39304	339.29266	167.72058	43.56724	310.43274	168.88568	40.09164	282.06934	184.37198	29.74415	261.81213	207.38058	19.59754	234.88922	230.20895	9.13608	199.50217	252.08263	6.86244	160.44568	268.23364	5.32909	349.18243	157.08240	27.10946	357.17227	145.59862	19.55554	371.44113	154.48700	9.75183	339.42328	177.27820	24.15174	333.58456	183.38358	13.45427	333.03723	168.09032	2.91720	275.16025	178.23618	22.62193	257.82718	169.41382	18.20230	244.50467	181.64076	4.57002	247.30109	172.28606	3.16869	288.90555	190.79256	24.42163	307.44708	195.08778	25.39329	305.35776	207.71431	7.50679	316.38202	207.50285	7.64207	
2802	23.342	373.64426	171.10323	47.59347	363.04895	171.53497	49.13944	340.59827	167.86581	43.31464	311.84103	168.85071	40.04978	283.24945	183.77948	29.87710	262.79852	206.89764	19.67247	235.77098	229.64464	9.16356	200.46979	251.63602	6.83046	161.46368	268.03540	5.36800	350.52444	157.42340	26.68845	358.48349	146.43271	18.49706	372.32697	155.41417	8.23431	340.36554	177.64212	24.20225	333.83191	183.45471	13.76260	333.15924	168.00728	2.97036	276.17563	177.88686	22.80975	258.66156	169.53786	18.42612	244.78442	181.31407	5.07648	247.40291	172.04776	3.23286	290.14352	190.46912	24.29361	308.69339	195.01656	24.63305	306.37033	206.72545	6.15400	317.43631	206.82083	5.97034	
2803	23.350	375.02155	171.44548	47.26072	364.38721	171.79163	48.83130	341.94958	168.06296	43.06115	313.31134	168.93213	40.00739	284.43155	183.44324	29.95513	263.78098	206.45992	19.75230	236.61118	229.06230	9.18643	201.40096	251.18282	6.81446	162.47327	267.81592	5.38332	351.88547	157.75479	26.22420	359.58759	147.15367	17.40244	372.96478	156.12910	6.71320	341.36438	178.01776	24.16061	334.12064	183.52907	13.97060	333.34140	168.02232	3.01044	277.37781	177.59972	22.96269	259.63828	169.65874	18.62407	245.11847	180.97943	5.61717	247.61443	171.85558	3.25288	291.37790	190.27605	24.17727	309.85370	195.26137	23.82247	307.02234	206.04059	4.95368	318.03290	206.44067	4.58986	
2804	23.358	376.45651	171.86687	46.90637	365.81204	172.13136	48.47641	343.38562	168.34227	42.78761	314.79535	169.12871	39.94675	285.60165	183.25511	30.08982	264.75113	206.06813	19.84439	237.40700	228.49821	9.21104	202.29449	250.72157	6.79196	163.45508	267.56299	5.38660	353.27081	158.08232	25.76152	360.48355	147.66255	16.37012	373.34750	156.64688	5.30043	342.36731	178.37717	24.00875	334.45132	183.63132	14.16391	333.56427	168.14668	3.03225	278.62531	177.47411	23.14000	260.73199	169.72580	18.79018	245.53391	180.67551	6.14463	247.89470	171.67136	3.24993	292.56158	190.24760	24.13146	310.89182	195.74672	23.05762	307.41644	205.67278	3.97710	318.25491	206.30266	3.59533	
2805	23.367	377.93985	172.36115	46.53991	367.28531	172.50516	48.11105	344.86697	168.71301	42.53887	316.32486	169.49269	39.95349	286.68719	183.40298	30.24029	265.73331	205.73311	19.95565	238.15323	227.95126	9.26505	203.16428	250.25548	6.76934	164.39470	267.28510	5.37881	354.55960	158.44089	25.30777	361.17300	147.94292	15.47213	373.50528	156.93054	4.10656	343.46494	178.77509	23.85505	334.79608	183.82722	14.50277	333.79755	168.28987	3.08590	279.94586	177.43225	23.35845	261.92081	169.78423	18.94479	246.02415	180.39633	6.70072	248.16766	171.47368	3.34218	293.71408	190.30701	24.12551	311.91605	196.40669	22.45929	307.61359	205.54008	3.31688	318.23029	206.32584	2.91571	
2806	23.375	379.44116	172.85576	46.19107	368.79749	172.90524	47.77776	346.39178	169.14195	42.33746	317.81421	169.99947	39.97779	287.77835	183.68411	30.43851	266.64282	205.55276	20.09165	238.86911	227.48094	9.34935	203.96893	249.82863	6.75226	165.27516	266.97845	5.37012	355.74127	158.71857	24.93271	361.68494	148.00363	14.78454	373.52448	157.02386	3.19718	344.59396	179.14290	23.68441	335.15408	184.12959	15.01606	334.05872	168.44836	3.16337	281.33142	177.47829	23.61439	263.19360	169.81976	19.11847	246.57610	180.16878	7.25961	248.43036	171.30608	3.50018	294.81146	190.50015	24.19994	312.87552	197.12895	22.01732	307.69034	205.50598	2.87999	318.12573	206.38622	2.48534	
2807	23.383	380.93973	173.30844	45.92406	370.30557	173.31552	47.51328	347.90683	169.67906	42.19787	319.30847	170.59486	40.04456	288.85074	184.07458	30.70037	267.53989	205.41585	20.25506	239.59261	227.06209	9.45082	204.71770	249.41200	6.77595	166.10136	266.70932	5.36825	356.90268	159.06746	24.60687	362.04465	147.95227	14.29247	373.46960	156.99458	2.60199	345.80499	179.68591	23.63325	335.54861	184.52161	15.67183	334.31882	168.58054	3.25577	282.73004	177.57338	23.89995	264.39590	169.90010	19.39237	247.16570	179.95804	7.82152	248.66902	171.05803	3.77910	295.95090	190.87488	24.41033	313.76196	197.85510	21.72042	307.68439	205.53825	2.64409	317.98065	206.41939	2.19822	
2808	23.392	382.43637	173.73862	45.76532	371.80127	173.72932	47.35683	349.39468	170.22198	42.13526	320.72086	171.28600	40.19018	289.97614	184.45082	30.96465	268.40115	205.32071	20.47985	240.31760	226.68210	9.55810	205.45837	248.98557	6.77580	166.87677	266.43399	5.36019	358.02261	159.34113	24.44514	362.31995	147.87035	14.00918	373.41278	156.90994	2.27663	347.06250	180.32521	23.71370	336.01004	184.96840	16.40673	334.75525	168.48492	3.47120	284.03674	177.71008	24.26588	265.61441	170.00305	19.75332	247.79970	179.70010	8.39402	248.89561	170.81311	4.12149	297.03336	191.25023	24.62680	314.54694	198.53282	21.49273	307.65668	205.53104	2.52625	317.93777	206.43007	2.08678	
2809	23.400	383.91083	174.14777	45.74875	373.26816	174.15675	47.32517	350.85733	170.76762	42.17046	322.12769	171.96544	40.37634	291.13815	184.72255	31.27745	269.21359	205.23877	20.75605	241.03648	226.31036	9.66182	206.15594	248.61673	6.78066	167.64876	266.14185	5.32517	359.10098	159.60210	24.40088	362.54126	147.89488	13.87012	373.38553	156.86118	2.11621	348.33731	181.04721	23.93825	336.57480	185.42902	17.14650	335.31766	168.26009	3.85765	285.25952	177.87840	24.67993	266.83038	170.12865	20.15548	248.43544	179.49889	8.97889	249.15372	170.57692	4.45162	298.09274	191.67197	24.89632	315.20587	199.17680	21.26987	307.60995	205.48982	2.46656	317.97589	206.43761	2.10143	
